<svg xmlns="http://www.w3.org/2000/svg" class="framer-6ZYlp framer-1p2a73n" role="presentation" viewBox="0 0 31 34" style="opacity: 1;"><g fill="transparent" height="30px" id="jDiiHchft" transform="translate(2 2)" width="27px"><path d="M 9 4.5 C 9 6.985 6.985 9 4.5 9 C 2.015 9 0 6.985 0 4.5 C 0 2.015 2.015 0 4.5 0 C 6.985 0 9 2.015 9 4.5 Z M 27 18 C 27 20.485 24.985 22.5 22.5 22.5 C 20.015 22.5 18 20.485 18 18 C 18 15.515 20.015 13.5 22.5 13.5 C 24.985 13.5 27 15.515 27 18 Z" fill="transparent" height="22.5px" id="JrmudbJDW" stroke="rgb(102, 102, 102)" stroke-dasharray="56.55567932128906 56.55567932128906" stroke-linecap="butt" stroke-linejoin="miter" stroke-miterlimit="10" stroke-width="2.25" transform="translate(0 6)" width="27px" stroke-dashoffset="35.677185069326555"></path><path d="M 4.5 10.5 L 12 10.5 C 14.828 10.5 16.243 10.5 17.121 11.379 C 18 12.257 18 13.672 18 16.5 L 18 19.5 M 0 15 L 0 30 M 0 6 L 0 0" fill="transparent" height="30px" id="cGmJzjJpq" stroke="rgb(102, 102, 102)" stroke-dasharray="42.13621520996094 42.13621520996094" stroke-linecap="round" stroke-linejoin="round" stroke-width="2.25" transform="translate(4.5 0)" width="18px" stroke-dashoffset="26.580912230345472"></path></g></svg>