<svg xmlns="http://www.w3.org/2000/svg" viewBox="0 0 90 80">
<g clip-path="url(#svg-1968601300_28490_clip0_594_2469)">
<path fill-rule="evenodd" clip-rule="evenodd" d="M20.4417 53.7935C19.8264 52.3296 19.3626 50.8657 19.036 49.4258C19.0029 49.2871 18.9177 49.153 18.7946 49.0574C17.9427 48.3828 17.1428 47.6701 16.3856 46.9237C16.0259 46.5649 15.4721 46.7467 15.51 47.2251C15.6378 48.6747 15.8886 50.1625 16.272 51.6647C15.5242 51.0619 14.8095 50.4256 14.1327 49.7654C14.393 49.7654 14.5871 49.5741 14.5444 49.2631C14.322 47.737 14.2274 46.2396 14.2511 44.7901C14.2511 44.6514 14.2037 44.5031 14.109 44.3882C13.4559 43.5654 12.8454 42.7139 12.2916 41.8384C12.0266 41.4222 11.4539 41.4748 11.3781 41.9484C11.1699 43.3693 11.0705 44.8523 11.0848 46.3736C10.512 45.6369 9.97248 44.881 9.46607 44.106C9.71691 44.1586 9.94883 44.0151 9.97722 43.7089C10.1098 42.1924 10.3606 40.7333 10.7061 39.3412C10.7392 39.2073 10.7203 39.0541 10.6588 38.925C10.2044 37.9969 9.80215 37.0449 9.45191 36.0737C9.28625 35.6145 8.71358 35.5427 8.53843 35.9877C8.02728 37.3224 7.60604 38.7288 7.2842 40.2023C6.89139 39.3699 6.53169 38.5279 6.20985 37.6716C6.44177 37.7721 6.70207 37.6859 6.792 37.3941C7.25106 35.9542 7.80958 34.5955 8.44377 33.3182C8.50529 33.1938 8.51952 33.0455 8.48639 32.902C8.24023 31.9021 8.05092 30.8927 7.90898 29.8738C7.84271 29.3906 7.29843 29.1992 7.03811 29.5915C6.26192 30.7779 5.55198 32.06 4.92251 33.4187C4.71426 32.5288 4.54388 31.6294 4.40662 30.7253C4.61013 30.8736 4.88465 30.8449 5.0361 30.5818C5.78863 29.2805 6.61688 28.0702 7.50664 26.9603C7.59188 26.8503 7.63917 26.7116 7.63443 26.5632C7.60604 25.5347 7.62975 24.5014 7.70544 23.468C7.74331 22.9801 7.25106 22.6691 6.91506 22.9992C5.90221 23.9942 4.94144 25.0946 4.04219 26.2905C4.02799 25.3768 4.04692 24.4583 4.10845 23.5398C4.27884 23.7312 4.54861 23.7598 4.75212 23.5398C5.76023 22.4299 6.82513 21.4205 7.93262 20.5211C8.04151 20.435 8.11719 20.3011 8.1409 20.1575C8.33496 19.1338 8.58105 18.1196 8.88391 17.115C9.03068 16.6365 8.61418 16.2251 8.21184 16.4787C7.00498 17.2441 5.82176 18.1244 4.68587 19.105C4.86571 18.1961 5.08816 17.2968 5.34374 16.4021C5.46679 16.627 5.7271 16.7179 5.97321 16.5361C7.20377 15.6558 8.46742 14.8904 9.75478 14.235C9.87783 14.1728 9.98197 14.058 10.0435 13.9193C10.4647 12.9433 10.9427 11.9865 11.4728 11.0489C11.7284 10.6039 11.4208 10.1016 10.9664 10.2691C9.59861 10.7762 8.24023 11.3933 6.90085 12.1253C7.2842 11.2642 7.71018 10.4127 8.17404 9.57541C8.24023 9.82901 8.47216 9.97251 8.76087 9.84812C10.176 9.2358 11.6006 8.73825 13.03 8.36034C13.1672 8.32203 13.2997 8.23113 13.3897 8.10674C14.0475 7.21697 14.7575 6.35583 15.5289 5.52342C15.8981 5.12635 15.723 4.55706 15.2307 4.62882C13.7446 4.84889 12.2395 5.18376 10.7439 5.62867C11.061 5.21246 11.3876 4.80104 11.7237 4.39441L11.4397 4.15521C11.0989 4.56663 10.7676 4.98283 10.4458 5.40383C10.4884 3.82033 10.6635 2.17944 10.9854 0.500271C11.0989 -0.059452 10.4884 -0.188619 10.0151 0.313696C9.04483 1.36138 8.14558 2.44256 7.32207 3.562C7.20377 3.71987 7.13277 3.90644 7.12803 4.07389C7.05231 5.78654 7.11857 7.44656 7.30791 9.03481C7.34572 9.36012 7.59662 9.47495 7.84271 9.39842C7.37418 10.2451 6.94345 11.1063 6.55535 11.977C6.21932 10.47 5.98741 8.89131 5.88328 7.24564C5.85016 6.70027 5.23488 6.70027 4.91304 7.26957C4.24097 8.44642 3.64463 9.65195 3.11454 10.8767C3.03881 11.0536 3.01515 11.2403 3.04829 11.3981C3.38432 13.0342 3.82921 14.5938 4.37823 16.0672C4.49181 16.3686 4.75685 16.426 4.9793 16.3016C4.71899 17.2059 4.49655 18.1196 4.31197 19.0333C3.64463 17.6651 3.06722 16.206 2.58446 14.6655C2.42827 14.1537 1.83193 14.2828 1.64734 14.8904C1.26872 16.1534 0.956342 17.4307 0.714967 18.7128C0.681837 18.8946 0.700769 19.0811 0.767029 19.2247C1.4533 20.722 2.23423 22.1237 3.08615 23.425C3.26126 23.6881 3.53577 23.6881 3.72509 23.5207C3.66356 24.4488 3.64463 25.3768 3.65883 26.3002C2.71698 25.1185 1.83666 23.8412 1.0368 22.4634C0.771762 22.0042 0.222746 22.2577 0.170684 22.8796C0.0760265 24.1761 0.0428963 25.4773 0.0807594 26.769C0.0854923 26.9555 0.142287 27.1278 0.241677 27.2569C1.23086 28.5581 2.28629 29.7494 3.38905 30.8306C3.61149 31.0506 3.88127 30.9884 4.03273 30.7827C4.16998 31.6964 4.34036 32.6054 4.55334 33.5048C3.38905 32.5576 2.25789 31.5003 1.18826 30.3378C0.83329 29.9503 0.345801 30.3139 0.430994 30.931C0.610844 32.2131 0.852221 33.4856 1.15986 34.739C1.20245 34.916 1.29711 35.0787 1.41544 35.1792C2.65072 36.2316 3.93333 37.1741 5.23961 37.9921C5.50466 38.1596 5.75549 38.04 5.85962 37.8056C6.18619 38.6714 6.54589 39.5278 6.94345 40.3649C5.60405 39.6856 4.2741 38.8915 2.98202 37.9826C2.55606 37.6764 2.15377 38.1404 2.36675 38.7288C2.81164 39.944 3.31806 41.1399 3.88601 42.3121C3.96647 42.4795 4.09425 42.6134 4.23151 42.69C5.66557 43.4602 7.1233 44.106 8.58579 44.637C8.88391 44.7423 9.10168 44.5748 9.14898 44.3213C9.66013 45.1058 10.2044 45.8713 10.7818 46.6128C9.3099 46.2301 7.83797 45.7326 6.37077 45.1155C5.88802 44.9097 5.59458 45.4503 5.93535 45.9813C6.63581 47.0864 7.39782 48.158 8.22133 49.1866C8.33963 49.3348 8.49113 49.4401 8.64731 49.4832C10.2328 49.9329 11.8184 50.263 13.3802 50.4735C13.6973 50.5165 13.8724 50.3012 13.863 50.0429C14.5492 50.7079 15.2734 51.3489 16.0259 51.9613C14.4735 51.8943 12.8974 51.7173 11.3072 51.4207C10.7818 51.3202 10.6209 51.9134 11.08 52.3679C12.0313 53.3104 13.0441 54.2049 14.109 55.0517C14.2605 55.1713 14.4404 55.2478 14.606 55.2574C16.2909 55.3674 17.9569 55.3531 19.5803 55.2287C19.9116 55.2048 20.0299 54.956 19.9541 54.6977C20.6783 55.1283 21.4213 55.5348 22.1881 55.9176C22.2165 55.8626 22.2436 55.8064 22.2709 55.7503C22.2982 55.6941 22.3253 55.6377 22.3537 55.5827C21.5965 55.2048 20.8582 54.803 20.1435 54.3772C20.4038 54.3198 20.5505 54.0901 20.4275 53.7935H20.4417ZM52.1753 25.1002C51.0863 25.1002 50.1357 24.8064 49.3234 24.2187C48.5167 23.6253 47.8887 22.787 47.4393 21.7039C46.9957 20.6207 46.7739 19.3417 46.7739 17.8667C46.7739 16.3918 46.9957 15.1128 47.4393 14.0296C47.8887 12.9465 48.5167 12.1111 49.3234 11.5235C50.1357 10.93 51.0863 10.6333 52.1753 10.6333C53.2699 10.6333 54.2206 10.93 55.0272 11.5235C55.8395 12.1111 56.4675 12.9465 56.9111 14.0296C57.3548 15.1128 57.5766 16.3918 57.5766 17.8667C57.5766 19.3417 57.3548 20.6207 56.9111 21.7039C56.4675 22.787 55.8395 23.6253 55.0272 24.2187C54.2206 24.8064 53.2699 25.1002 52.1753 25.1002ZM52.1753 23.3718C53.2066 23.3718 54.0189 22.8936 54.6124 21.9373C55.2058 20.9751 55.5025 19.6182 55.5025 17.8667C55.5025 16.1095 55.2058 14.7527 54.6124 13.7963C54.0189 12.8399 53.2066 12.3618 52.1753 12.3618C51.1497 12.3618 50.3402 12.8399 49.7468 13.7963C49.1534 14.7527 48.8567 16.1095 48.8567 17.8667C48.8567 19.6182 49.1534 20.9751 49.7468 21.9373C50.3402 22.8936 51.1497 23.3718 52.1753 23.3718ZM33.8536 24.5644C34.6083 24.9331 35.4984 25.1175 36.524 25.1175C37.5092 25.1175 38.3734 24.9043 39.1166 24.478C39.8599 24.0459 40.4388 23.4553 40.8537 22.7064C41.2743 21.9516 41.4846 21.0903 41.4846 20.1224C41.4846 19.2409 41.2916 18.4602 40.9055 17.7804C40.5195 17.1005 39.9866 16.5676 39.3067 16.1816C38.6327 15.7955 37.852 15.6025 36.9647 15.6025C36.3137 15.6025 35.7059 15.7235 35.1412 15.9655C34.5823 16.2075 34.1272 16.5589 33.7757 17.0199L34.4153 12.6556H40.4043V10.9703H32.7819L31.6844 18.5581H33.7412C34.0235 18.1145 34.398 17.7688 34.8647 17.5211C35.3314 17.2733 35.8585 17.1495 36.4462 17.1495C37.0511 17.1495 37.584 17.2791 38.045 17.5384C38.5059 17.7976 38.8631 18.1577 39.1166 18.6187C39.3759 19.0796 39.5055 19.6125 39.5055 20.2175C39.5055 21.1796 39.229 21.9545 38.6759 22.5421C38.1228 23.1298 37.391 23.4237 36.4807 23.4237C35.5877 23.4237 34.8503 23.1817 34.2684 22.6978C33.6865 22.208 33.3206 21.5598 33.1708 20.7533H31.1227C31.2724 21.6175 31.5749 22.378 32.0301 23.0347C32.4909 23.6858 33.0988 24.1957 33.8536 24.5644ZM43.2693 24.5385C43.5459 24.792 43.8916 24.9188 44.3064 24.9188C44.727 24.9188 45.0727 24.792 45.3435 24.5385C45.6143 24.2793 45.7496 23.9479 45.7496 23.5447C45.7496 23.1471 45.6143 22.8216 45.3435 22.5681C45.0727 22.3089 44.727 22.1792 44.3064 22.1792C43.8916 22.1792 43.5459 22.3089 43.2693 22.5681C42.9986 22.8216 42.8632 23.1471 42.8632 23.5447C42.8632 23.9479 42.9986 24.2793 43.2693 24.5385ZM37.9452 38.8482C38.254 38.9934 38.6077 39.066 39.0064 39.066C39.3729 39.066 39.6955 39.0014 39.9743 38.8724C40.2532 38.741 40.471 38.5589 40.6276 38.3262C40.7844 38.0934 40.8628 37.825 40.8628 37.5208C40.8628 37.1981 40.7947 36.9273 40.6588 36.7084C40.5251 36.4871 40.3166 36.3016 40.0331 36.1518C39.752 35.9997 39.389 35.8695 38.9442 35.7612C38.5109 35.6529 38.2125 35.5192 38.0489 35.3602C37.8875 35.1989 37.8069 34.9857 37.8069 34.7207C37.8069 34.4326 37.9072 34.2056 38.1076 34.0397C38.3104 33.8715 38.5789 33.7873 38.9131 33.7873C39.2565 33.7873 39.5284 33.8784 39.7289 34.0604C39.9317 34.2425 40.0584 34.4971 40.1091 34.8244H40.721C40.6634 34.3404 40.4778 33.9613 40.1644 33.6871C39.851 33.4129 39.4351 33.2757 38.9165 33.2757C38.5685 33.2757 38.2632 33.3391 38.0005 33.4658C37.7401 33.5903 37.5361 33.7643 37.3886 33.9878C37.2434 34.209 37.1708 34.4649 37.1708 34.7552C37.1708 35.177 37.2976 35.5135 37.551 35.7647C37.8069 36.0158 38.2367 36.2141 38.8405 36.3592C39.177 36.4399 39.4465 36.531 39.6494 36.6323C39.8545 36.7315 40.0019 36.8547 40.0919 37.0022C40.184 37.1497 40.2301 37.3375 40.2301 37.5656C40.2301 37.8515 40.1183 38.0865 39.8948 38.2709C39.6736 38.4553 39.3832 38.5475 39.0237 38.5475C38.6065 38.5475 38.2632 38.4379 37.9935 38.219C37.7239 38.0001 37.5591 37.6924 37.4992 37.2961H36.8666C36.9058 37.6556 37.0187 37.9678 37.2054 38.2328C37.392 38.4979 37.6386 38.703 37.9452 38.8482ZM43.2359 38.9761C42.8257 38.9761 42.5192 38.8677 42.3164 38.6512C42.1159 38.4345 42.0157 38.0877 42.0157 37.6106V35.4155H41.193V34.9212H41.6492C41.7944 34.9212 41.9004 34.897 41.9673 34.8486C42.0364 34.7979 42.0814 34.7126 42.1021 34.5928C42.1136 34.5305 42.1251 34.4453 42.1367 34.337C42.1482 34.2264 42.1586 34.1134 42.1678 33.9982C42.1793 33.883 42.1862 33.7873 42.1885 33.7113H42.5964V34.9212H43.7718V35.4155H42.5964V37.5656C42.5964 37.8929 42.6517 38.128 42.7624 38.2709C42.8753 38.4115 43.0723 38.4818 43.3535 38.4818C43.5217 38.4818 43.6888 38.4587 43.8547 38.4126V38.8897C43.7902 38.9104 43.698 38.93 43.5782 38.9484C43.4606 38.9669 43.3466 38.9761 43.2359 38.9761ZM44.6447 38.7168C44.9235 38.945 45.2923 39.059 45.7509 39.059C46.0551 39.059 46.3178 39.0037 46.539 38.8931C46.7602 38.7802 46.9377 38.6224 47.0714 38.4195C47.1013 38.3734 47.1232 38.3435 47.1371 38.3297C47.1509 38.3158 47.1682 38.3089 47.1889 38.3089C47.2304 38.3089 47.2581 38.347 47.2719 38.423C47.2834 38.4783 47.2926 38.5543 47.2996 38.6512C47.3064 38.7456 47.311 38.839 47.3134 38.9312H47.7524V36.4214C47.7524 35.9053 47.6084 35.5054 47.3203 35.2219C47.0345 34.9362 46.6255 34.7933 46.0931 34.7933C45.7935 34.7933 45.5216 34.8463 45.2773 34.9523C45.0353 35.0583 44.8325 35.2069 44.6689 35.3982C44.5076 35.5895 44.3993 35.8153 44.344 36.0758H44.9558C45.018 35.8361 45.1482 35.6448 45.3464 35.5019C45.5469 35.3567 45.8004 35.2842 46.1069 35.2842C46.4503 35.2842 46.7142 35.3809 46.8986 35.5745C47.0829 35.7681 47.1751 36.0458 47.1751 36.4076V36.4214C47.0645 36.4537 46.8905 36.4837 46.6531 36.5113C46.4158 36.5367 46.138 36.5598 45.82 36.5804C45.2784 36.6173 44.8774 36.7372 44.617 36.94C44.3589 37.1405 44.2298 37.4297 44.2298 37.8076C44.2298 38.1833 44.3681 38.4864 44.6447 38.7168ZM45.0975 38.3711C44.9178 38.2328 44.8279 38.0427 44.8279 37.8008C44.8279 37.568 44.9074 37.3928 45.0664 37.2753C45.2277 37.1578 45.4916 37.084 45.858 37.0541C46.1807 37.0287 46.4538 37.0022 46.6773 36.9746C46.9009 36.9469 47.0668 36.9158 47.1751 36.8813V36.8916C47.1751 37.1082 47.1555 37.2995 47.1164 37.4654C47.0771 37.6291 47.0276 37.7742 46.9677 37.901C46.8432 38.166 46.6785 38.3458 46.4734 38.4403C46.2683 38.5324 46.0493 38.5785 45.8165 38.5785C45.5193 38.5785 45.2796 38.5094 45.0975 38.3711ZM48.812 38.9312V34.9212H49.2441C49.2464 34.9673 49.251 35.0306 49.2579 35.1113C49.2672 35.192 49.2764 35.2623 49.2856 35.3222C49.3017 35.4282 49.334 35.4812 49.3823 35.4812C49.4192 35.4812 49.4596 35.4489 49.5033 35.3844C49.6116 35.2069 49.7523 35.0699 49.9251 34.973C50.098 34.874 50.2869 34.8244 50.492 34.8244C50.8239 34.8244 51.0855 34.9339 51.2767 35.1528C51.468 35.3694 51.5637 35.6679 51.5637 36.0481C51.5637 36.0896 51.5614 36.1334 51.5567 36.1795H51.014C51.0163 36.161 51.0175 36.1426 51.0175 36.1242C51.0183 36.1168 51.0189 36.1096 51.0195 36.1025L51.0204 36.089C51.0207 36.0809 51.0209 36.073 51.0209 36.0654C51.0233 35.8396 50.9702 35.6587 50.8619 35.5227C50.7559 35.3844 50.6038 35.3152 50.4056 35.3152C50.0415 35.3152 49.7684 35.5192 49.5863 35.9271C49.5218 36.0746 49.4734 36.2475 49.4412 36.4456C49.4089 36.6439 49.3927 36.8605 49.3927 37.0956V38.9312H48.812ZM29.092 45.5407V49.5506H29.6727V47.715C29.6727 47.48 29.6889 47.2633 29.7212 47.0651C29.7534 46.867 29.8018 46.6941 29.8663 46.5466C30.0484 46.1387 30.3214 45.9347 30.6856 45.9347C30.8838 45.9347 31.0359 46.0039 31.1419 46.1421C31.2502 46.2781 31.3033 46.459 31.3009 46.6849C31.3009 46.7033 31.2998 46.7229 31.2974 46.7436C31.2974 46.7621 31.2963 46.7805 31.294 46.7989H31.8367C31.8414 46.7528 31.8436 46.7091 31.8436 46.6676C31.8436 46.2873 31.748 45.9889 31.5567 45.7723C31.3655 45.5533 31.1039 45.4439 30.772 45.4439C30.5669 45.4439 30.3779 45.4934 30.2051 45.5925C30.0322 45.6893 29.8917 45.8264 29.7834 46.0039C29.7396 46.0684 29.6992 46.1007 29.6624 46.1007C29.614 46.1007 29.5817 46.0476 29.5656 45.9416C29.5563 45.8817 29.5471 45.8115 29.5379 45.7308C29.531 45.6501 29.5264 45.5867 29.5241 45.5407H29.092ZM33.6534 49.6785C33.1948 49.6785 32.826 49.5644 32.5472 49.3363C32.2706 49.1058 32.1324 48.8027 32.1324 48.4272C32.1324 48.0492 32.2614 47.76 32.5195 47.5595C32.7799 47.3567 33.1809 47.2368 33.7225 47.2C34.0405 47.1792 34.3183 47.1562 34.5556 47.1308C34.793 47.1031 34.967 47.0732 35.0776 47.0409V47.0271C35.0776 46.6653 34.9854 46.3876 34.8011 46.194C34.6167 46.0004 34.3528 45.9036 34.0094 45.9036C33.703 45.9036 33.4494 45.9762 33.249 46.1214C33.0507 46.2643 32.9205 46.4556 32.8583 46.6953H32.2465C32.3018 46.4348 32.4101 46.209 32.5714 46.0177C32.735 45.8264 32.9378 45.6778 33.1798 45.5717C33.4241 45.4657 33.696 45.4127 33.9956 45.4127C34.528 45.4127 34.937 45.5557 35.2228 45.8414C35.5109 46.1249 35.6549 46.5247 35.6549 47.0409V49.5506H35.2159C35.2136 49.4585 35.209 49.3651 35.2021 49.2706C35.1951 49.1738 35.1859 49.0977 35.1744 49.0425C35.1606 48.9664 35.1329 48.9284 35.0914 48.9284C35.0707 48.9284 35.0534 48.9353 35.0396 48.9491C35.0257 48.963 35.0039 48.9929 34.9739 49.039C34.8402 49.2418 34.6628 49.3996 34.4415 49.5126C34.2203 49.6232 33.9576 49.6785 33.6534 49.6785ZM32.7304 48.4202C32.7304 48.6622 32.8203 48.8523 33 48.9906C33.1821 49.1289 33.4218 49.198 33.719 49.198C33.9518 49.198 34.1708 49.1519 34.3759 49.0597C34.581 48.9652 34.7457 48.7855 34.8702 48.5205C34.9301 48.3937 34.9796 48.2485 35.0189 48.0849C35.058 47.919 35.0776 47.7277 35.0776 47.5111V47.5007C34.9693 47.5353 34.8034 47.5663 34.5799 47.594C34.3563 47.6217 34.0832 47.6482 33.7605 47.6735C33.3942 47.7035 33.1302 47.7773 32.969 47.8948C32.8099 48.0123 32.7304 48.1874 32.7304 48.4202ZM37.2676 49.2706C37.4704 49.4872 37.7769 49.5955 38.1872 49.5955C38.2977 49.5955 38.4119 49.5863 38.5294 49.5679C38.6492 49.5494 38.7413 49.5299 38.8059 49.5091V49.032C38.64 49.0781 38.4729 49.1012 38.3047 49.1012C38.0235 49.1012 37.8264 49.0309 37.7135 48.8903C37.6029 48.7474 37.5476 48.5124 37.5476 48.1852V46.035H38.7229V45.5407H37.5476V44.3307H37.1397C37.1374 44.4068 37.1305 44.5024 37.119 44.6177C37.1098 44.7329 37.0994 44.8459 37.0878 44.9564C37.0764 45.0648 37.0648 45.15 37.0533 45.2122C37.0325 45.3321 36.9876 45.4173 36.9185 45.4681C36.8516 45.5164 36.7456 45.5407 36.6005 45.5407H36.1441V46.035H36.9668V48.2301C36.9668 48.7072 37.0671 49.054 37.2676 49.2706ZM41.1722 49.675C40.7573 49.675 40.3932 49.5863 40.0798 49.4089C39.7687 49.2314 39.5256 48.9826 39.3504 48.6622C39.1776 48.3395 39.0911 47.9639 39.0911 47.5353C39.0911 47.1204 39.1811 46.754 39.3608 46.436C39.5428 46.1157 39.7895 45.8656 40.1006 45.6859C40.4117 45.5038 40.7608 45.4127 41.148 45.4127C41.5559 45.4127 41.9085 45.4992 42.2058 45.672C42.5031 45.8449 42.7324 46.0822 42.8937 46.3841C43.055 46.686 43.1357 47.0306 43.1357 47.4177C43.1357 47.4638 43.1334 47.5215 43.1288 47.5906C43.1265 47.6597 43.123 47.7081 43.1184 47.7358H39.6961C39.7192 48.169 39.8632 48.5181 40.1283 48.7832C40.3932 49.0482 40.7413 49.1807 41.1722 49.1807C41.4948 49.1807 41.7737 49.1047 42.0087 48.9525C42.2439 48.7981 42.3971 48.5954 42.4685 48.3442H43.0735C43.0112 48.6161 42.8914 48.8523 42.714 49.0528C42.5388 49.251 42.3187 49.4043 42.0537 49.5126C41.791 49.6209 41.4972 49.675 41.1722 49.675ZM41.1583 45.9002C40.7551 45.9002 40.4209 46.0235 40.1559 46.2701C39.8931 46.5167 39.7411 46.845 39.6996 47.2553H42.5584C42.5538 46.9902 42.4916 46.7563 42.3717 46.5535C42.2519 46.3484 42.0871 46.1882 41.8774 46.073C41.67 45.9578 41.4303 45.9002 41.1583 45.9002ZM44.662 49.4054C44.9708 49.5874 45.3188 49.6785 45.7059 49.6785C46.0332 49.6785 46.319 49.6209 46.5632 49.5057C46.8075 49.3882 47.0138 49.2245 47.182 49.0148C47.2442 48.9411 47.2938 48.9042 47.3307 48.9042C47.3791 48.9042 47.4113 48.9571 47.4274 49.0632C47.4366 49.137 47.4436 49.2222 47.4482 49.319C47.4551 49.4135 47.4597 49.4907 47.4621 49.5506H47.8976V43.8157H47.3169V45.9728C47.3169 46.0465 47.2949 46.0834 47.2512 46.0834C47.2281 46.0834 47.2016 46.0672 47.1716 46.035C47.0126 45.8437 46.811 45.6927 46.5667 45.5821C46.3224 45.4692 46.0447 45.4127 45.7336 45.4127C45.3326 45.4127 44.9754 45.5049 44.662 45.6893C44.3486 45.8713 44.102 46.1237 43.9222 46.4464C43.7447 46.7667 43.656 47.1331 43.656 47.5456C43.656 47.9581 43.7459 48.3257 43.9256 48.6484C44.1077 48.9687 44.3532 49.2211 44.662 49.4054ZM46.6012 48.963C46.3708 49.1012 46.1046 49.1704 45.8027 49.1704C45.5031 49.1704 45.2369 49.1012 45.0042 48.963C44.7714 48.8247 44.5893 48.6334 44.458 48.3891C44.3266 48.1448 44.261 47.8637 44.261 47.5456C44.261 47.2276 44.3266 46.9465 44.458 46.7021C44.5893 46.4579 44.7714 46.2666 45.0042 46.1283C45.2369 45.9901 45.5031 45.9209 45.8027 45.9209C46.1046 45.9209 46.3708 45.9901 46.6012 46.1283C46.8318 46.2666 47.0126 46.4579 47.144 46.7021C47.2754 46.9441 47.3411 47.2253 47.3411 47.5456C47.3411 47.8637 47.2754 48.1448 47.144 48.3891C47.0126 48.6334 46.8318 48.8247 46.6012 48.963ZM52.6647 49.6785C52.2476 49.6785 51.8754 49.5863 51.5481 49.402C51.2232 49.2176 50.9674 48.9652 50.7807 48.6449C50.5941 48.3222 50.5007 47.9559 50.5007 47.5456C50.5007 47.1331 50.5941 46.7667 50.7807 46.4464C50.9674 46.126 51.2232 45.8737 51.5481 45.6893C51.8754 45.5049 52.2476 45.4127 52.6647 45.4127C53.0819 45.4127 53.4529 45.5049 53.7778 45.6893C54.1051 45.8737 54.362 46.126 54.5487 46.4464C54.7354 46.7667 54.8287 47.1331 54.8287 47.5456C54.8287 47.9559 54.7354 48.3222 54.5487 48.6449C54.362 48.9652 54.1051 49.2176 53.7778 49.402C53.4529 49.5863 53.0819 49.6785 52.6647 49.6785ZM52.6647 49.1704C52.9712 49.1704 53.2409 49.1012 53.4737 48.963C53.7087 48.8247 53.8919 48.6334 54.0233 48.3891C54.1569 48.1448 54.2238 47.8637 54.2238 47.5456C54.2238 47.2276 54.1569 46.9465 54.0233 46.7021C53.8919 46.4579 53.7087 46.2666 53.4737 46.1283C53.2409 45.9901 52.9712 45.9209 52.6647 45.9209C52.3605 45.9209 52.0909 45.9901 51.8558 46.1283C51.6208 46.2666 51.4364 46.4579 51.3028 46.7021C51.1714 46.9465 51.1057 47.2276 51.1057 47.5456C51.1057 47.8637 51.1714 48.1448 51.3028 48.3891C51.4364 48.6334 51.6208 48.8247 51.8558 48.963C52.0909 49.1012 52.3605 49.1704 52.6647 49.1704ZM56.075 45.5407H55.636V49.5506H56.2202V47.9812C56.2202 47.3198 56.3412 46.8151 56.5832 46.4671C56.832 46.1076 57.1893 45.9278 57.6548 45.9278C57.9775 45.9278 58.2286 46.035 58.4084 46.2493C58.5904 46.4614 58.6815 46.7667 58.6815 47.1654V49.5506H59.2622V47.1239C59.2622 46.5731 59.1274 46.1502 58.8577 45.8552C58.5881 45.5603 58.209 45.4127 57.7205 45.4127C57.4047 45.4127 57.1339 45.4762 56.9081 45.6029C56.6822 45.7273 56.4933 45.9013 56.3412 46.1249C56.3112 46.1686 56.2882 46.1963 56.272 46.2078C56.2582 46.217 56.2398 46.2216 56.2167 46.2216C56.1868 46.2216 56.1637 46.209 56.1476 46.1836C56.1314 46.1559 56.1188 46.1053 56.1096 46.0316C56.1026 45.9739 56.0958 45.8956 56.0888 45.7964C56.0819 45.6974 56.0773 45.6121 56.075 45.5407ZM23.161 69.6993V67.6733H29.9881C30.0549 68.0264 30.0894 68.4441 30.0894 68.8962C30.0894 70.4162 29.6738 72.2958 28.3347 73.6346C27.0321 74.9911 25.3679 75.7146 23.1632 75.7146C19.0768 75.7146 15.6407 72.3865 15.6407 68.2998C15.6407 64.2135 19.0768 60.8849 23.1632 60.8849C25.4238 60.8849 27.0343 61.772 28.2443 62.9281L26.8147 64.3577C25.947 63.5439 24.7715 62.9109 23.161 62.9109C20.177 62.9109 17.8431 65.3158 17.8431 68.2998C17.8431 71.2842 20.177 73.6891 23.161 73.6891C25.0966 73.6891 26.1989 72.9118 26.9051 72.2052C27.4778 71.6325 27.8545 70.8148 28.0031 69.6971L23.161 69.6993ZM64.0054 61.4294V75.4236H61.96V61.4294H64.0054ZM40.484 70.9415C40.484 73.6912 38.3331 75.7167 35.6936 75.7167C33.0541 75.7167 30.9032 73.6912 30.9032 70.9415C30.9032 68.1729 33.0541 66.1664 35.6936 66.1664C38.3331 66.1664 40.484 68.1729 40.484 70.9415ZM38.387 70.9415C38.387 69.2236 37.1404 68.048 35.6936 68.048C34.2468 68.048 33.0002 69.2236 33.0002 70.9415C33.0002 72.6427 34.2468 73.835 35.6936 73.835C37.1404 73.835 38.387 72.6406 38.387 70.9415ZM50.8183 70.9415C50.8183 73.6912 48.6675 75.7167 46.0279 75.7167C43.3884 75.7167 41.2376 73.6912 41.2376 70.9415C41.2376 68.1751 43.3884 66.1664 46.0279 66.1664C48.6675 66.1664 50.8183 68.1729 50.8183 70.9415ZM48.7213 70.9415C48.7213 69.2236 47.4747 68.048 46.0279 68.048C44.5811 68.048 43.3346 69.2236 43.3346 70.9415C43.3346 72.6427 44.5811 73.835 46.0279 73.835C47.4747 73.835 48.7213 72.6406 48.7213 70.9415ZM60.722 75.0279V66.457H58.7305V67.2342H58.6573C58.1858 66.6723 57.2816 66.1664 56.1426 66.1664C53.755 66.1664 51.5675 68.2633 51.5675 70.9592C51.5675 73.6353 53.755 75.7146 56.1426 75.7146C57.2837 75.7146 58.188 75.2091 58.6573 74.63H58.7305V75.3167C58.7305 77.1447 57.7552 78.1153 56.1814 78.1153C54.8982 78.1153 54.1016 77.1985 53.7765 76.4212L51.9508 77.1808C52.4761 78.4466 53.8691 79.9949 56.1835 79.9949C58.6422 79.9949 60.722 78.5549 60.722 75.0279ZM56.33 68.048C57.7574 68.048 58.8791 69.2774 58.8791 70.9592C58.8791 72.6229 57.7574 73.835 56.33 73.835C54.8832 73.835 53.671 72.6229 53.671 70.9592C53.671 69.2774 54.8832 68.048 56.33 68.048ZM73.6032 73.5985L71.9756 72.5132C71.4333 73.3096 70.6925 73.835 69.6246 73.835C68.5589 73.835 67.7989 73.3465 67.3102 72.3879L73.6938 69.7443L73.4764 69.2018C73.08 68.1361 71.8679 66.1639 69.39 66.1639C66.9291 66.1639 64.8859 68.0994 64.8859 70.9394C64.8859 73.6176 66.9119 75.7146 69.6246 75.7146C71.812 75.7146 73.0779 74.3751 73.6032 73.5985ZM71.2329 69.0231L66.9657 70.795C66.9119 68.952 68.3953 68.0112 69.461 68.0112C70.2921 68.0112 70.9986 68.4267 71.2329 69.0231ZM69.607 49.4258C69.2804 50.8657 68.8165 52.3296 68.2012 53.7935H68.2155C68.0924 54.0901 68.2391 54.3198 68.4995 54.3772C67.7848 54.803 67.0464 55.2048 66.2892 55.5827C66.3176 55.6377 66.3448 55.6939 66.372 55.7501C66.3992 55.8064 66.4265 55.8626 66.4548 55.9176C67.2216 55.5348 67.9646 55.1283 68.6888 54.6977C68.6131 54.956 68.7314 55.2048 69.0626 55.2287C70.6861 55.3531 72.3522 55.3674 74.0371 55.2574C74.2028 55.2478 74.3826 55.1713 74.5341 55.0517C75.5989 54.2049 76.6113 53.3104 77.5628 52.3679C78.0223 51.9134 77.8609 51.3202 77.3356 51.4207C75.7455 51.7173 74.1695 51.8943 72.617 51.9613C73.3695 51.3489 74.0938 50.7079 74.7798 50.0429C74.7706 50.3012 74.9455 50.5165 75.2626 50.4735C76.8244 50.263 78.4102 49.9329 79.9954 49.4832C80.1518 49.4401 80.3033 49.3348 80.4216 49.1866C81.2449 48.158 82.0074 47.0864 82.7076 45.9813C83.0481 45.4503 82.755 44.9097 82.2722 45.1155C80.8053 45.7326 79.3327 46.2301 77.8609 46.6128C78.4386 45.8713 78.983 45.1058 79.4941 44.3213C79.5416 44.5748 79.7589 44.7423 80.057 44.637C81.5196 44.106 82.9773 43.4602 84.4117 42.69C84.549 42.6134 84.6764 42.4795 84.7572 42.3121C85.3249 41.1399 85.8311 39.944 86.2765 38.7288C86.4888 38.1404 86.0867 37.6764 85.6612 37.9826C84.3692 38.8915 83.0389 39.6856 81.6995 40.3649C82.0973 39.5278 82.457 38.6714 82.7833 37.8056C82.8874 38.04 83.138 38.1596 83.4035 37.9921C84.7097 37.1741 85.9926 36.2316 87.2272 35.1792C87.3462 35.0787 87.4403 34.916 87.4828 34.739C87.7908 33.4856 88.0322 32.2131 88.212 30.931C88.297 30.3139 87.8099 29.9503 87.4545 30.3378C86.3848 31.5003 85.2541 32.5576 84.0895 33.5048C84.3026 32.6054 84.4733 31.6964 84.6099 30.7827C84.7614 30.9884 85.0311 31.0506 85.2542 30.8306C86.3564 29.7494 87.412 28.5581 88.4011 27.2569C88.5009 27.1278 88.5575 26.9555 88.5625 26.769C88.6 25.4773 88.5667 24.1761 88.4726 22.8796C88.4202 22.2577 87.8715 22.0042 87.606 22.4634C86.806 23.8412 85.926 25.1185 84.9844 26.3002C84.9986 25.3768 84.9795 24.4488 84.9179 23.5207C85.1069 23.6881 85.3816 23.6881 85.5572 23.425C86.4088 22.1237 87.1897 20.722 87.8757 19.2247C87.9423 19.0811 87.9614 18.8946 87.9281 18.7128C87.6867 17.4307 87.3745 16.1534 86.9957 14.8904C86.811 14.2828 86.2149 14.1537 86.0584 14.6655C85.5756 16.206 84.9986 17.6651 84.331 19.0333C84.1462 18.1196 83.9239 17.2059 83.6633 16.3016C83.8864 16.426 84.1511 16.3686 84.2644 16.0672C84.8138 14.5938 85.2584 13.0342 85.5947 11.3981C85.6279 11.2403 85.6039 11.0536 85.5281 10.8767C84.9986 9.65195 84.4018 8.44642 83.7299 7.26957C83.4078 6.70027 82.7925 6.70027 82.76 7.24564C82.6552 8.89131 82.4237 10.47 82.0874 11.977C81.6995 11.1063 81.269 10.2451 80.8003 9.39842C81.046 9.47495 81.2973 9.36012 81.3349 9.03481C81.5246 7.44656 81.5904 5.78654 81.5147 4.07389C81.5104 3.90644 81.4389 3.71987 81.3207 3.562C80.4973 2.44256 79.5982 1.36138 78.6276 0.313696C78.1547 -0.188619 77.5437 -0.059452 77.6577 0.500271C77.9791 2.17944 78.1547 3.82033 78.1972 5.40383C77.875 4.98283 77.5437 4.56663 77.2032 4.15521L76.9193 4.39441C77.2556 4.80104 77.5819 5.21246 77.8991 5.62867C76.4032 5.18376 74.898 4.84889 73.412 4.62882C72.92 4.55706 72.7451 5.12635 73.114 5.52342C73.8856 6.35583 74.5957 7.21697 75.2534 8.10674C75.3433 8.23113 75.4757 8.32203 75.6131 8.36034C77.0425 8.73825 78.4669 9.2358 79.8821 9.84812C80.171 9.97251 80.4025 9.82901 80.469 9.57541C80.9327 10.4127 81.3589 11.2642 81.7419 12.1253C80.4025 11.3933 79.0446 10.7762 77.6768 10.2691C77.2223 10.1016 76.9143 10.6039 77.1699 11.0489C77.7002 11.9865 78.178 12.9433 78.5993 13.9193C78.6609 14.058 78.7649 14.1728 78.8881 14.235C80.1752 14.8904 81.4389 15.6558 82.6701 16.5361C82.9157 16.7179 83.1763 16.627 83.2995 16.4021C83.555 17.2968 83.7773 18.1961 83.9572 19.105C82.8209 18.1244 81.6379 17.2441 80.4308 16.4787C80.0287 16.2251 79.6124 16.6365 79.7589 17.115C80.0619 18.1196 80.3083 19.1338 80.5023 20.1575C80.5256 20.3011 80.6014 20.435 80.7104 20.5211C81.8177 21.4205 82.8825 22.4299 83.8906 23.5398C84.0945 23.7598 84.3642 23.7312 84.5341 23.5398C84.5957 24.4583 84.6149 25.3768 84.6007 26.2905C83.7016 25.0946 82.7409 23.9942 81.7278 22.9992C81.3922 22.6691 80.8995 22.9801 80.9377 23.468C81.0134 24.5014 81.0368 25.5347 81.0085 26.5632C81.0035 26.7116 81.051 26.8503 81.1366 26.9603C82.0258 28.0702 82.8541 29.2805 83.6067 30.5818C83.7582 30.8449 84.0329 30.8736 84.2361 30.7253C84.0987 31.6294 83.9288 32.5288 83.7207 33.4187C83.0906 32.06 82.3812 30.7779 81.6046 29.5915C81.3448 29.1992 80.8003 29.3906 80.7338 29.8738C80.5922 30.8927 80.4025 31.9021 80.1568 32.902C80.1235 33.0455 80.1377 33.1938 80.1993 33.3182C80.8336 34.5955 81.3922 35.9542 81.851 37.3941C81.9409 37.6859 82.2014 37.7721 82.4329 37.6716C82.1115 38.5279 81.7518 39.3699 81.3589 40.2023C81.0368 38.7288 80.6156 37.3224 80.1044 35.9877C79.9295 35.5427 79.3568 35.6145 79.1911 36.0737C78.8407 37.0449 78.4386 37.9969 77.9841 38.925C77.9225 39.0541 77.9041 39.2073 77.9366 39.3412C78.2821 40.7333 78.5334 42.1924 78.6658 43.7089C78.6941 44.0151 78.9264 44.1586 79.177 44.106C78.6708 44.881 78.1306 45.6369 77.5586 46.3736C77.5727 44.8523 77.4729 43.3693 77.2648 41.9484C77.189 41.4748 76.6163 41.4222 76.3515 41.8384C75.7979 42.7139 75.1869 43.5654 74.5341 44.3882C74.4393 44.5031 74.3918 44.6514 74.3918 44.7901C74.4159 46.2396 74.321 47.737 74.0987 49.2631C74.0556 49.5741 74.2502 49.7654 74.5101 49.7654C73.8333 50.4256 73.1189 51.0619 72.3713 51.6647C72.7543 50.1625 73.0049 48.6747 73.1331 47.2251C73.1706 46.7467 72.617 46.5649 72.2573 46.9237C71.4998 47.6701 70.7002 48.3828 69.8483 49.0574C69.7253 49.153 69.6401 49.2871 69.607 49.4258Z" fill="black"/>
</g>
<defs>
<clipPath id="svg-1968601300_28490_clip0_594_2469">
<rect width="89.2036" height="80" fill="white" transform="translate(0.0654297)"/>
</clipPath>
</defs>
</svg>